<svg width="1280" height="720" viewBox="0 0 1280 720" fill="none" xmlns="http://www.w3.org/2000/svg">
<path fill-rule="evenodd" clip-rule="evenodd" d="M471.5 -450.06C657.115 -486.109 821.968 -408.238 991.608 -367.73C1183.21 -321.976 1441.59 -316.794 1523.22 -198.923C1604.85 -81.046 1443.84 60.116 1379.36 192.189C1319.97 313.824 1316.03 453.945 1161.79 541.342C1008.65 628.118 779.728 574.391 585 598.5C386.728 623.048 178.82 741.857 14.2606 683.415C-150.131 625.033 -124.104 469.588 -189.373 356.661C-250.126 251.549 -409.91 159.877 -354.449 45.4869C-299.082 -68.7105 -65.4297 -105.223 75.5876 -189.83C217.163 -274.771 289.573 -414.728 471.5 -450.06Z" fill="url(#paint0_linear)"/>
<defs>
<linearGradient id="paint0_linear" x1="-417.638" y1="-349.17" x2="1036.01" y2="1120.06" gradientUnits="userSpaceOnUse">
<stop offset="0.203055" stop-color="#0094FF"/>
<stop offset="0.805754" stop-color="#7400B8"/>
</linearGradient>
</defs>
</svg>
